<svg xmlns="http://www.w3.org/2000/svg" viewBox="0 0 60 60"><title>ic_team_no_logo</title><g id="OBJECTS"><path d="M30,2.27V57.73S25.67,55.94,17,49c-7.81-6.27-7.08-7.25-7.08-12.76V10.92a6.3,6.3,0,0,0,4.58-3,9.56,9.56,0,0,0,1.14-5.69Z" fill="#5e5e5e"/><path d="M30,2.27V57.73S34.33,55.94,43,49c7.81-6.27,7.08-7.25,7.08-12.76V10.92a6.3,6.3,0,0,1-4.58-3,9.56,9.56,0,0,1-1.14-5.69Z" fill="#4c4c4c"/><path d="M17.59,4.18a11.28,11.28,0,0,1-1.41,4.73,7.91,7.91,0,0,1-4.33,3.51V36.25c0,.47,0,.9,0,1.31-.05,4-.06,4.79,6.38,9.95A75.26,75.26,0,0,0,30,55.61V4.18Z" fill="#e0e0e0"/><path d="M41.78,47.51c6.44-5.16,6.43-6,6.38-9.95,0-.41,0-.84,0-1.31V12.42a7.91,7.91,0,0,1-4.33-3.51,11.28,11.28,0,0,1-1.41-4.73H30V55.61h0A75.26,75.26,0,0,0,41.78,47.51Z" fill="#adadad"/><path d="M18.61,5.33a12.46,12.46,0,0,1-1.43,4.15A8.87,8.87,0,0,1,13,13.2V36.25c0,.47,0,.91,0,1.32-.05,3.67-.05,4.24,6,9A79,79,0,0,0,30,54.31v-49Z" fill="#5e5e5e"/><path d="M41.06,46.62c6-4.81,6-5.38,5.95-9,0-.41,0-.85,0-1.32v-23a8.87,8.87,0,0,1-4.18-3.72,12.46,12.46,0,0,1-1.43-4.15H30v49h0A79,79,0,0,0,41.06,46.62Z" fill="#4c4c4c"/></g></svg>