<?xml version="1.0" standalone="no"?>
<!DOCTYPE svg PUBLIC "-//W3C//DTD SVG 1.1//EN" "http://www.w3.org/Graphics/SVG/1.1/DTD/svg11.dtd" >
<svg xmlns="http://www.w3.org/2000/svg" xmlns:xlink="http://www.w3.org/1999/xlink" version="1.1" viewBox="0 -480 2400 2400">
  <g transform="matrix(1 0 0 -1 0 1920)">
   <path fill="currentColor"
d="M1158 379.63l-1067.74 790.981c-11.0303 8.21973 -16.5498 19 -16.5498 29.7598s5.51953 21.4902 16.5498 29.6201l1069.5 788.88c7.42969 5.53027 14.4199 8.16016 20.4199 8.16016c11.8301 0 19.8301 -10.2002 19.8301 -28.4805l-0.379883 -451.37
c224 -17.5703 1136.5 -147.25 1150.38 -1097.5c-177.48 422.28 -742.551 450.88 -1068.15 450.88c-29.8604 0 -57.7002 -0.240234 -83.0498 -0.44043l-0.55957 -500.19c0 -18.25 -7.92969 -28.4297 -19.7695 -28.4297c-6 0 -13 2.62012 -20.4805 8.12988z" />
  </g>

</svg>
