<?xml version="1.0" standalone="no"?>
<!DOCTYPE svg PUBLIC "-//W3C//DTD SVG 1.1//EN" "http://www.w3.org/Graphics/SVG/1.1/DTD/svg11.dtd" >
<svg xmlns="http://www.w3.org/2000/svg" xmlns:xlink="http://www.w3.org/1999/xlink" version="1.1" viewBox="-18 -480 2400 2400">
  <g transform="matrix(1 0 0 -1 0 1920)">
   <path fill="currentColor"
d="M783 255.13l-324.632 324.631c-19.5 19.4404 -51.3799 51.25 -70.6895 70.6904l-390.69 390.75c-9.5 9.66016 -14.25 22.4404 -14.25 35.25s4.75 25.6494 14.25 35.4395l324.69 324.62c9.75 9.71973 22.5898 14.5801 35.4102 14.5801s25.6201 -4.86035 35.2803 -14.5801
l390.63 -390.62c9.78027 -9.71973 22.6201 -14.5801 35.4297 -14.5801s25.5898 4.86035 35.25 14.5801l1049.43 1049.18c9.7002 9.75977 22.6104 14.6494 35.5303 14.6494c12.8203 0 25.6504 -4.80957 35.3604 -14.46l326.75 -322.25
c9.92969 -9.70996 14.8701 -22.5498 14.8701 -35.3994c0 -12.7002 -4.83008 -25.4102 -14.4297 -35.1006l-1447.5 -1447.38c-9.75 -9.71973 -22.5801 -14.5801 -35.3896 -14.5801s-25.6094 4.86035 -35.2998 14.5801z" />
  </g>

</svg>
