<?xml version="1.0" encoding="UTF-8" standalone="no"?>
<svg
   xmlns:dc="http://purl.org/dc/elements/1.1/"
   xmlns:cc="http://creativecommons.org/ns#"
   xmlns:rdf="http://www.w3.org/1999/02/22-rdf-syntax-ns#"
   xmlns:svg="http://www.w3.org/2000/svg"
   xmlns="http://www.w3.org/2000/svg"
   id="svg4700"
   viewBox="0 -150 1000 1000"
   version="1.1">
  <metadata
     id="metadata4710">
    <rdf:RDF>
      <cc:Work
         rdf:about="">
        <dc:format>image/svg+xml</dc:format>
        <dc:type
           rdf:resource="http://purl.org/dc/dcmitype/StillImage" />
        <dc:title></dc:title>
      </cc:Work>
    </rdf:RDF>
  </metadata>
  <defs
     id="defs4708" />
  <g
     id="g4702"
     transform="matrix(1.0988701,0,0,-1.0988701,-49.43505,734.60454)">
    <path
       style="fill:currentColor"
       id="path4704"
       d="m 47,608 0,-117 55,0 q 38,-2 47,8 9,10 7,54 l 0,63 63,0 q 44,-2 54,7 10,9 8,47 l 0,55 -234,0 0,-117 z m 672,62 q -2,-38 8,-47 10,-9 54,-7 l 63,0 0,-63 q -2,-44 7,-54 9,-10 47,-8 l 55,0 0,234 -234,0 0,-55 z M 47,92 l 0,-117 234,0 0,55 q 2,38 -8,47 -10,9 -54,7 l -63,0 0,63 q 2,44 -7,54 -9,10 -47,8 l -55,0 0,-117 z m 797,55 0,-63 -63,0 q -44,2 -54,-7 -10,-9 -8,-47 l 0,-55 234,0 0,234 -55,0 q -38,2 -47,-8 -9,-10 -7,-54 z" />
  </g>
</svg>
