<?xml version="1.0" encoding="UTF-8" standalone="no"?>
<svg
   xmlns:dc="http://purl.org/dc/elements/1.1/"
   xmlns:cc="http://creativecommons.org/ns#"
   xmlns:rdf="http://www.w3.org/1999/02/22-rdf-syntax-ns#"
   xmlns:svg="http://www.w3.org/2000/svg"
   xmlns="http://www.w3.org/2000/svg"
   id="svg5252"
   viewBox="0 -150 1000 1000"
   version="1.1">
  <metadata
     id="metadata5262">
    <rdf:RDF>
      <cc:Work
         rdf:about="">
        <dc:format>image/svg+xml</dc:format>
        <dc:type
           rdf:resource="http://purl.org/dc/dcmitype/StillImage" />
        <dc:title></dc:title>
      </cc:Work>
    </rdf:RDF>
  </metadata>
  <defs
     id="defs5260" />
  <g
     id="g5254"
     transform="matrix(1.0982848,0,0,-1.0982848,-49.1424,734.39968)">
    <path
       style="fill:currentColor"
       id="path5256"
       d="m 172,663 0,-63 -63,0 Q 65,602 55,592.5 45,583 47,545 l 0,-54 234,0 0,234 -54,0 q -39,2 -48,-8.5 -9,-10.5 -7,-53.5 z m 547,-55 0,-117 234,0 0,54 q 2,38 -8,47.5 -10,9.5 -54,7.5 l -63,0 0,63 q 2,43 -7,53.5 -9,10.5 -48,8.5 l -54,0 0,-117 z M 47,155 Q 45,117 55,107.5 65,98 109,100 l 63,0 0,-62 q -2,-44 7,-54.5 9,-10.5 48,-8.5 l 54,0 0,234 -234,0 0,-54 z m 672,-63 0,-117 54,0 q 39,-2 48,8.5 9,10.5 7,54.5 l 0,62 63,0 q 44,-2 54,7.5 10,9.5 8,47.5 l 0,54 -234,0 0,-117 z" />
  </g>
</svg>
