<?xml version="1.0" encoding="UTF-8" standalone="no"?>
<svg
   xmlns:dc="http://purl.org/dc/elements/1.1/"
   xmlns:cc="http://creativecommons.org/ns#"
   xmlns:rdf="http://www.w3.org/1999/02/22-rdf-syntax-ns#"
   xmlns:svg="http://www.w3.org/2000/svg"
   xmlns="http://www.w3.org/2000/svg"
   version="1.1"
   viewBox="0 -150 1000 1000"
   id="svg3387">
  <metadata
     id="metadata3397">
    <rdf:RDF>
      <cc:Work
         rdf:about="">
        <dc:format>image/svg+xml</dc:format>
        <dc:type
           rdf:resource="http://purl.org/dc/dcmitype/StillImage" />
        <dc:title></dc:title>
      </cc:Work>
    </rdf:RDF>
  </metadata>
  <defs
     id="defs3395" />
  <g
     transform="matrix(1.3163842,0,0,-1.3163842,6.355925,810.73447)"
     id="g3389">
    <path
       d="M 668,350 Q 666,453 608.5,530 551,607 459,637 l 0,88 Q 586,693 666.5,591 747,489 750,350 750,299 738,251.5 726,204 703,163 l -62,62 q 26,57 27,125 z m -293,344 0,-203 -100,99 z m 322,-619 0,0 47,-47 -47,-47 -78,78 Q 551,-3 459,-25 l 0,88 q 56,17 102,55 L 375,303 375,6 166,225 0,225 0,475 166,475 184,495 6,672 53,719 Z M 563,350 q 1,-21 -4,-43 l -100,100 0,117 Q 507,500 534.5,453.5 562,407 563,350 Z"
       id="path3391"
       style="fill:currentColor" />
  </g>
</svg>
