<?xml version="1.0" encoding="UTF-8" standalone="no"?>
<svg
   xmlns:dc="http://purl.org/dc/elements/1.1/"
   xmlns:cc="http://creativecommons.org/ns#"
   xmlns:rdf="http://www.w3.org/1999/02/22-rdf-syntax-ns#"
   xmlns:svg="http://www.w3.org/2000/svg"
   xmlns="http://www.w3.org/2000/svg"
   id="svg3375"
   viewBox="0 -150 1000 1000"
   version="1.1">
  <metadata
     id="metadata3385">
    <rdf:RDF>
      <cc:Work
         rdf:about="">
        <dc:format>image/svg+xml</dc:format>
        <dc:type
           rdf:resource="http://purl.org/dc/dcmitype/StillImage" />
        <dc:title></dc:title>
      </cc:Work>
    </rdf:RDF>
  </metadata>
  <defs
     id="defs3383" />
  <g
     id="g3377"
     transform="matrix(1.3216912,0,0,-1.3216912,4.3658,812.59192)">
    <path
       style="fill:currentColor"
       id="path3379"
       d="M 0,475 166,475 375,694 375,6 166,225 0,225 0,475 Z M 563,350 Q 562,293 534.5,247 507,201 459,178 l 0,346 Q 507,500 534.5,453.5 562,407 563,350 Z M 459,725 Q 586,693 666.5,591 747,489 750,350 747,211 666.5,109 586,7 459,-25 l 0,88 Q 551,93 607.5,170 664,247 666,350 664,453 607.5,530 551,607 459,637 l 0,88 z" />
  </g>
</svg>
