<svg xmlns="http://www.w3.org/2000/svg" viewBox="0 0 10 13"><defs><style>.a{fill:#fff;}</style></defs><g transform="translate(-67.062)"><g transform="translate(68.165 7.958)"><g transform="translate(0)"><path class="a" d="M116.382,317.761l-1.63-1.366-1.5-1.253,2.058-1.725h-1.261l-1.428,1.2-1.428-1.2h-1.261L112,315.142l-1.509,1.265-1.616,1.354a.387.387,0,0,0-.04.562.428.428,0,0,0,.585.038l1.5-1.261h3.409l1.5,1.261a.428.428,0,0,0,.585-.038A.387.387,0,0,0,116.382,317.761Zm-4.511-1.458.755-.633.755.633Z" transform="translate(-108.73 -313.417)"/></g></g><g transform="translate(67.062)"><path class="a" d="M76.647,3.579a.407.407,0,0,0-.415.4v.89H75.95V.4a.407.407,0,0,0-.415-.4H68.588a.407.407,0,0,0-.415.4V4.866h-.282v-.89a.415.415,0,0,0-.83,0V6.764a.407.407,0,0,0,.415.4h9.17a.407.407,0,0,0,.415-.4V3.977A.407.407,0,0,0,76.647,3.579ZM71.422,1.654l.369-.051.165-.319a.12.12,0,0,1,.21,0l.165.319.369.051a.11.11,0,0,1,.065.19l-.267.248.063.351a.116.116,0,0,1-.17.118l-.33-.166-.33.166a.116.116,0,0,1-.17-.118l.063-.351-.267-.248A.11.11,0,0,1,71.422,1.654Zm3.7,3.213H69V3.795h6.118Z" transform="translate(-67.062)"/></g></g></svg>