<svg xmlns="http://www.w3.org/2000/svg" viewBox="0 0 18.5 18.5"><defs><style>.a{fill:#fff;stroke:#fff;stroke-width:0.5px;}</style></defs><g transform="translate(0.25 0.25)"><path class="a" d="M163.138,0h-4.673a.469.469,0,0,0,0,.938h3.549L152.9,10.143a.469.469,0,0,0,.666.66l9.108-9.195V5.142a.469.469,0,1,0,.937,0V.469A.469.469,0,0,0,163.138,0Zm0,0" transform="translate(-145.606)"/><path class="a" d="M15.194,57.58a.469.469,0,0,0-.469.469v5.133a1.408,1.408,0,0,1-1.406,1.406H2.344A1.408,1.408,0,0,1,.938,63.182V52.207A1.408,1.408,0,0,1,2.344,50.8H7.477a.469.469,0,1,0,0-.937H2.344A2.346,2.346,0,0,0,0,52.207V63.182a2.346,2.346,0,0,0,2.344,2.344H13.319a2.346,2.346,0,0,0,2.344-2.344V58.049A.469.469,0,0,0,15.194,57.58Zm0,0" transform="translate(0 -47.526)"/></g></svg>