<svg xmlns="http://www.w3.org/2000/svg" width="28.798" height="28.488" viewBox="0 0 28.798 28.488"><defs><style>.a{fill:#0b4a7d;}.b{fill:#0862a6;}.c{fill:#036fb3;}.d{fill:#020202;}.e{fill:#403e3c;}.f{fill:#fff;}.g{fill:#2977a8;}</style></defs><g transform="translate(0)"><g transform="translate(7.533)"><path class="a" d="M72.31,8.18c-.01-.115-.01-.24-.01-.365C72.3,3.084,73.623,0,77.208,0c1.813,0,2.042,5.3,2.042,8.18Z" transform="translate(-72.3)"/><path class="a" d="M72.31,194.9c-.01.115-.01.24-.01.365,0,4.731,1.323,7.815,4.908,7.815,1.813,0,2.042-5.3,2.042-8.18Z" transform="translate(-72.3 -174.591)"/></g><path class="b" d="M19.2,44.6" transform="translate(-17.2 -39.953)"/><g transform="translate(0 6.346)"><g transform="translate(0)"><path class="c" d="M0,68.8c0-7.075,6.419-7.9,14.348-7.9h.094c7.888.01,15.317,2.074,14.255,7.9-1.209,6.669-6.387,7.888-14.255,7.9h-.094C6.419,76.7,0,75.873,0,68.8Z" transform="translate(0 -60.9)"/></g><g transform="translate(25.029 3.824)"><circle class="d" cx="1.375" cy="1.375" r="1.375"/><g transform="translate(0.813 0.01)"><path class="e" d="M248.969,99.617a.969.969,0,0,1-.2-1.917,1.371,1.371,0,0,1,1.136,1.136A.943.943,0,0,1,248.969,99.617Z" transform="translate(-248 -97.7)"/></g><circle class="f" cx="0.438" cy="0.438" r="0.438" transform="translate(1.334 0.531)"/></g><g transform="translate(26.811 8.659)"><path class="d" d="M257.394,144.563a.332.332,0,1,1,.469-.469,1.152,1.152,0,0,0,1.011.281.212.212,0,0,0,.052-.01c-.063.2-.125.469-.219.688h-.073A1.665,1.665,0,0,1,257.394,144.563Z" transform="translate(-257.3 -144)"/></g><path class="a" d="M157.063,116.718c.594-.584,2.813.584,3.428.927a6.509,6.509,0,0,0,0,2.011c-.615.344-2.793,1.469-3.428.927C156.312,119.948,156.312,117.447,157.063,116.718Z" transform="translate(-140.193 -110.758)"/><g transform="translate(0 0.396)"><path class="g" d="M260.1,172.7Z" transform="translate(-232.998 -161.446)"/><path class="g" d="M0,72.2c-.01-4.647,3.355-6.836,7.586-7.5-2.8,3.918-3.241,9.43,1.375,12.16,5.46,3.23,12.952,2.011,18.266-.823-2.615,3.772-7.867,4.012-12.045,4.064C9.3,80.184,0,80.174,0,72.2Z" transform="translate(0 -64.7)"/></g></g></g></svg>