<svg version="1.1"
     xmlns="http://www.w3.org/2000/svg" xmlns:xlink="http://www.w3.org/1999/xlink" xmlns:a="http://ns.adobe.com/AdobeSVGViewerExtensions/3.0/"
     x="0px" y="0px" width="861.9px" height="183.2px" viewBox="0 0 861.9 183.2" style="enable-background:new 0 0 861.9 183.2;"
     xml:space="preserve">
<style type="text/css">
    .st0{fill:#989898;}
    .st1{fill:#676767;}
    .st2{fill:#0663A6;}
    .st3{fill:#787879;}
    .st4{opacity:0.27;fill:#8D8C8C;enable-background:new    ;}
    .st5{fill:#020202;}
    .st6{fill:#413F3D;}
    .st7{fill:#FFFFFF;}
</style>
<defs>
</defs>
<g>
    <g>
        <path class="st0" d="M359.5,135.4c0.3,2.7-1.4,5-4,5.3c-2.7,0.3-4.8-1.6-5.1-4.1l-9.5-77.8l-33,67.1c-1,2.1-2.8,5-6.3,5
            c-3.4,0-5.3-2.8-6.3-5l-33.1-67.1l-9.5,77.8c-0.3,2.6-2.4,4.4-5.1,4.1c-2.6-0.3-4.3-2.6-4-5.3l10.8-89c0.3-2.7,2.3-5.1,5.1-5.1h1
            c2.3,0,4,1.1,4.8,2.8l36.3,74.2l36.1-74.2c0.9-1.7,2.6-2.8,4.8-2.8h1c2.8,0,4.8,2.4,5.1,5.1L359.5,135.4z"/>
        <path class="st0" d="M501.7,40.8c27.9,0,49.4,22.5,49.4,50.4c0,27.7-21.5,50.2-49.4,50.2c-27.7,0-49.2-22.5-49.2-50.2
            C452.5,63.3,474,40.8,501.7,40.8z M501.7,132c22.6,0,40-18.2,40-40.8c0-22.6-17.4-41-40-41c-22.6,0-39.8,18.3-39.8,41
            C461.9,113.8,479.1,132,501.7,132z"/>
        <path class="st0" d="M652.9,139.9c-2.6,0-4.8-2.3-4.8-4.8V46c0-2.7,2-4.8,4.7-4.8c2.7,0,4.7,2.1,4.7,4.8v84.5h37.4
            c2.7,0,4.8,2,4.8,4.7c0,2.7-2.1,4.7-4.8,4.7H652.9z"/>
        <path class="st0" d="M861.5,134.2c1,2.4-0.2,5.1-2.7,6.1c-2.6,1-5.3-0.4-6.1-2.8l-9-23.3h-45.4l-8.9,23.3
            c-0.9,2.4-3.6,3.8-6.1,2.8c-2.6-1-3.7-3.7-2.7-6.1l34-88.6c1-2.7,2.8-4.4,6.1-4.4h0.7c3.3,0,5.1,1.7,6.1,4.4L861.5,134.2z
             M821.1,55l-19.3,50.3h38.7L821.1,55z"/>
    </g>
    <g>
        <g>
            <g>
                <g>
                    <path class="st1" d="M48.5,52.6c0-0.8-0.1-1.5-0.1-2.3C48.4,19.8,56.9,0,80,0c11.7,0,13.2,34.1,13.2,52.6H48.5z"/>
                    <path class="st1" d="M48.5,130.6c0,0.8-0.1,1.5-0.1,2.3c0,30.4,8.5,50.2,31.6,50.2c11.7,0,13.2-34.1,13.2-52.6H48.5z"/>
                </g>
                <path class="st2" d="M12.9,29.9"/>
                <g>
                    <g>
                        <path class="st0" d="M0,91.6c0-45.5,41.3-50.8,92.3-50.8c0.2,0,0.4,0,0.6,0v0c50.8,0.1,98.5,13.3,91.7,50.8
                            c-7.8,42.9-41.1,50.8-91.7,50.8c-0.2,0-0.4,0-0.6,0C41.3,142.4,0,137.1,0,91.6L0,91.6C0,91.6,0,91.6,0,91.6
                            C0,91.6,0,91.6,0,91.6L0,91.6z"/>
                    </g>
                    <path class="st3" d="M108.5,79.2c3.8-3.7,18.1,3.8,22.1,6c-0.7,1.6-0.7,11.4,0,12.9c-4,2.2-18,9.5-22.1,6
                        C103.7,99.9,103.7,83.8,108.5,79.2z"/>
                    <path class="st4" d="M57.6,121.5c-29.7-17.6-26.8-53-8.8-78.2c0,0,0,0,0,0C19.7,47.9,0,60.2,0,91.6l0,0c0,0,0,0,0,0
                        c0,0,0,0,0,0l0,0c0,45.5,41.3,50.8,92.3,50.8c0.2,0,0.4,0,0.6,0c37.8,0,65.9-4.4,80.9-24.5c0.2-0.3,0.4-0.6,0.6-0.8
                        c0.2-0.3,0.4-0.6,0.6-0.8C140.8,134.4,92.7,142.3,57.6,121.5z"/>
                </g>
            </g>
            <g>
                <g>
                    <path class="st5" d="M160.8,74.2c0,4.9,4,8.8,8.8,8.8c4.9,0,8.8-4,8.8-8.8c0-4.9-4-8.8-8.8-8.8
                        C164.7,65.3,160.8,69.3,160.8,74.2z"/>
                </g>
                <g>
                    <path class="st6" d="M172.2,77.7c-3.4,0-6.2-2.8-6.2-6.2c0-3,2.1-5.5,5-6.1c3.7,0.6,6.7,3.6,7.3,7.3
                        C177.7,75.6,175.2,77.7,172.2,77.7z"/>
                </g>
                <path class="st7" d="M169.3,71.6c0,1.5,1.3,2.8,2.8,2.8s2.8-1.3,2.8-2.8c0-1.5-1.3-2.8-2.8-2.8S169.3,70.1,169.3,71.6z"/>
            </g>
        </g>
        <g>
            <path class="st5" d="M173,99.9c-0.8-0.8-0.8-2.2,0-3c0.8-0.8,2.2-0.8,3,0c1.5,1.5,4,2.2,6.5,1.8c0.1,0,0.4-0.1,0.4-0.1
                c-0.4,1.3-0.8,3-1.4,4.4c-0.1,0-0.4,0-0.4,0C178,103.1,175.1,102,173,99.9z"/>
        </g>
    </g>
</g>
</svg>