<svg xmlns="http://www.w3.org/2000/svg" viewBox="0 0 240 240"><defs><style>.cls-1,.cls-5{isolation:isolate;}.cls-2{fill:#0a4b7e;}.cls-3{fill:#0070b2;}.cls-4{fill:#020202;}.cls-5{fill:#8d8c8c;opacity:0.27;mix-blend-mode:multiply;}.cls-6{fill:#413f3d;}.cls-7{fill:#fff;}.cls-8{fill:#084c7e;}</style></defs><title>Default</title><g class="cls-1"><g id="Layer_1" data-name="Layer 1"><path class="cls-2" d="M75.9,60.29c0-.77-.09-1.53-.09-2.33,0-30.42,8.53-50.24,31.59-50.24,11.69,0,13.16,34.08,13.16,52.57Z"/><path class="cls-2" d="M75.9,138.33c0,.77-.09,1.53-.09,2.34,0,30.41,8.53,50.24,31.59,50.24,11.69,0,13.16-34.09,13.16-52.58Z"/><path class="cls-3" d="M27.42,99.31c0-45.49,41.3-50.82,92.25-50.82h.58c50.76.08,98.5,13.31,91.68,50.82-7.81,42.91-41.07,50.75-91.68,50.82h-.58c-50.95,0-92.25-5.33-92.25-50.82Z"/><path class="cls-4" d="M200.46,107.67a2.11,2.11,0,0,1,3-3,7.42,7.42,0,0,0,6.49,1.8l.35,0c-.37,1.28-.82,3-1.38,4.39h-.44A11.2,11.2,0,0,1,200.46,107.67Z"/><path class="cls-2" d="M135.92,86.87c3.84-3.72,18.1,3.78,22.05,6-.65,1.57-.65,11.37,0,12.94-3.95,2.19-18,9.45-22.05,6C131.09,107.63,131.09,91.54,135.92,86.87Z"/><path class="cls-5" d="M85,129.22c-29.66-17.56-26.83-53-8.83-78.17h0c-29,4.57-48.74,16.82-48.74,48.26h0c0,45.49,41.3,50.82,92.25,50.82h.58c37.76,0,65.86-4.44,80.94-24.49l.61-.84.58-.84C168.23,142.15,120.08,150,85,129.22Z"/><path class="cls-4" d="M188.19,81.88A8.83,8.83,0,1,0,197,73.05,8.82,8.82,0,0,0,188.19,81.88Z"/><path class="cls-6" d="M199.64,85.46a6.2,6.2,0,0,1-1.22-12.28,8.8,8.8,0,0,1,7.3,7.3A6.2,6.2,0,0,1,199.64,85.46Z"/><path class="cls-7" d="M196.77,79.32a2.81,2.81,0,1,0,2.81-2.81A2.8,2.8,0,0,0,196.77,79.32Z"/><path class="cls-8" d="M57.57,230.72a1.21,1.21,0,0,1-1,1.38A1.19,1.19,0,0,1,55.19,231l-2.5-20.34-8.62,17.55a1.68,1.68,0,0,1-3.27,0l-8.66-17.55L29.64,231a1.19,1.19,0,0,1-1.34,1.08,1.21,1.21,0,0,1-1-1.38l2.83-23.27a1.41,1.41,0,0,1,1.34-1.34h.26a1.34,1.34,0,0,1,1.26.74l9.49,19.41,9.44-19.41a1.34,1.34,0,0,1,1.26-.74h.26a1.41,1.41,0,0,1,1.34,1.34Z"/><path class="cls-8" d="M77.58,206a13.14,13.14,0,1,1-12.86,13.16A12.92,12.92,0,0,1,77.58,206Zm0,23.83a10.69,10.69,0,1,0-10.41-10.67A10.46,10.46,0,0,0,77.58,229.83Z"/><path class="cls-8" d="M100,231.91a1.3,1.3,0,0,1-1.27-1.26V207.37a1.23,1.23,0,1,1,2.46,0v22.09h9.77a1.23,1.23,0,1,1,0,2.45Z"/><path class="cls-8" d="M142.32,230.42a1.21,1.21,0,0,1-.71,1.6,1.23,1.23,0,0,1-1.6-.74l-2.34-6.1H125.81l-2.34,6.1a1.23,1.23,0,0,1-1.6.74,1.2,1.2,0,0,1-.7-1.6l8.88-23.16a1.57,1.57,0,0,1,1.6-1.15h.19a1.57,1.57,0,0,1,1.59,1.15Zm-10.56-20.71-5,13.16h10.11Z"/><path class="cls-8" d="M200.07,222c.17-.5.35-1,.51-1.51,1.12-3.61,2.19-7.24,3.37-10.83,1.26-3.84,5.09-4.79,8.15-2.11a1.43,1.43,0,0,1,.46,1.91c-2.7,6.37-5.35,12.77-8,19.16-.76,1.86-1.81,3.28-4.07,3.41-3,.16-4.17-.45-5.38-3.26-2.73-6.35-5.4-12.74-8.17-19.08a1.7,1.7,0,0,1,.73-2.44c3.57-2.4,7-1.23,8.25,2.87L199.67,222Z"/><path class="cls-8" d="M165.47,228.7c0,1.33.32,2.5,1.67,3.07,3.44,1.46,6.15-.31,6.18-4,0-.18,0-14.77,0-14.77s4.28,0,5.61-.14a2.43,2.43,0,0,0,2.12-1.91c.84-2.82-.47-4.64-3.45-4.68-2.77,0-5.54,0-8.31,0h-3.87c-1.62,0-3.23,0-4.85,0a2.88,2.88,0,0,0-3.09,3c-.14,2.07.78,3.34,2.72,3.67a12.29,12.29,0,0,0,1.92.09c1,0,3.43,0,3.43,0S165.47,224.6,165.47,228.7Z"/></g></g></svg>