<!-- Generator: Adobe Illustrator 22.1.0, SVG Export Plug-In  -->
<svg version="1.1"
     xmlns="http://www.w3.org/2000/svg" xmlns:xlink="http://www.w3.org/1999/xlink" xmlns:a="http://ns.adobe.com/AdobeSVGViewerExtensions/3.0/"
     x="0px" y="0px" width="185.2px" height="224.6px" viewBox="0 0 185.2 224.6" style="enable-background:new 0 0 185.2 224.6;"
     xml:space="preserve">
<style type="text/css">
    .st0{fill:#989898;}
    .st1{fill:#676767;}
    .st2{fill:#0663A6;}
    .st3{fill:#787879;}
    .st4{opacity:0.27;fill:#8D8C8C;enable-background:new    ;}
    .st5{fill:#020202;}
    .st6{fill:#413F3D;}
    .st7{fill:#FFFFFF;}
</style>
<defs>
</defs>
<g>
    <g>
        <path class="st0" d="M30.3,223c0.1,0.7-0.4,1.3-1,1.4c-0.7,0.1-1.3-0.4-1.3-1.1L25.4,203l-8.6,17.5c-0.3,0.6-0.7,1.3-1.6,1.3
            c-0.9,0-1.4-0.7-1.6-1.3L4.9,203l-2.5,20.3c-0.1,0.7-0.6,1.1-1.3,1.1c-0.7-0.1-1.1-0.7-1-1.4l2.8-23.3c0.1-0.7,0.6-1.3,1.3-1.3
            h0.3c0.6,0,1,0.3,1.3,0.7l9.5,19.4l9.4-19.4c0.2-0.4,0.7-0.7,1.3-0.7h0.3c0.7,0,1.3,0.6,1.3,1.3L30.3,223z"/>
        <path class="st0" d="M75.3,198.3c7.3,0,12.9,5.9,12.9,13.2c0,7.2-5.6,13.1-12.9,13.1c-7.3,0-12.9-5.9-12.9-13.1
            C62.5,204.2,68.1,198.3,75.3,198.3z M75.3,222.1c5.9,0,10.4-4.8,10.4-10.7c0-5.9-4.5-10.7-10.4-10.7c-5.9,0-10.4,4.8-10.4,10.7
            C64.9,217.4,69.4,222.1,75.3,222.1z"/>
        <path class="st0" d="M122.7,224.2c-0.7,0-1.3-0.6-1.3-1.3v-23.3c0-0.7,0.5-1.3,1.2-1.3c0.7,0,1.2,0.6,1.2,1.3v22.1h9.8
            c0.7,0,1.3,0.5,1.3,1.2c0,0.7-0.6,1.2-1.3,1.2H122.7z"/>
        <path class="st0" d="M185.1,222.7c0.3,0.6,0,1.3-0.7,1.6c-0.7,0.3-1.4-0.1-1.6-0.7l-2.3-6.1h-11.9l-2.3,6.1
            c-0.2,0.6-0.9,1-1.6,0.7c-0.7-0.3-1-1-0.7-1.6l8.9-23.2c0.3-0.7,0.7-1.2,1.6-1.2h0.2c0.9,0,1.3,0.4,1.6,1.2L185.1,222.7z
             M174.5,202l-5.1,13.2h10.1L174.5,202z"/>
    </g>
    <g>
        <g>
            <g>
                <g>
                    <path class="st1" d="M48.5,52.6c0-0.8-0.1-1.5-0.1-2.3C48.4,19.8,56.9,0,80,0c11.7,0,13.2,34.1,13.2,52.6H48.5z"/>
                    <path class="st1" d="M48.5,130.6c0,0.8-0.1,1.5-0.1,2.3c0,30.4,8.5,50.2,31.6,50.2c11.7,0,13.2-34.1,13.2-52.6H48.5z"/>
                </g>
                <path class="st2" d="M12.9,29.9"/>
                <g>
                    <g>
                        <path class="st0" d="M0,91.6c0-45.5,41.3-50.8,92.3-50.8c0.2,0,0.4,0,0.6,0v0c50.8,0.1,98.5,13.3,91.7,50.8
                            c-7.8,42.9-41.1,50.8-91.7,50.8c-0.2,0-0.4,0-0.6,0C41.3,142.4,0,137.1,0,91.6L0,91.6C0,91.6,0,91.6,0,91.6
                            C0,91.6,0,91.6,0,91.6L0,91.6z"/>
                    </g>
                    <path class="st3" d="M108.5,79.2c3.8-3.7,18.1,3.8,22.1,6c-0.7,1.6-0.7,11.4,0,12.9c-4,2.2-18,9.5-22.1,6
                        C103.7,99.9,103.7,83.8,108.5,79.2z"/>
                    <path class="st4" d="M57.6,121.5c-29.7-17.6-26.8-53-8.8-78.2c0,0,0,0,0,0C19.7,47.9,0,60.2,0,91.6l0,0c0,0,0,0,0,0
                        c0,0,0,0,0,0l0,0c0,45.5,41.3,50.8,92.3,50.8c0.2,0,0.4,0,0.6,0c37.8,0,65.9-4.4,80.9-24.5c0.2-0.3,0.4-0.6,0.6-0.8
                        c0.2-0.3,0.4-0.6,0.6-0.8C140.8,134.4,92.7,142.3,57.6,121.5z"/>
                </g>
            </g>
            <g>
                <g>
                    <path class="st5" d="M160.8,74.2c0,4.9,4,8.8,8.8,8.8c4.9,0,8.8-4,8.8-8.8c0-4.9-4-8.8-8.8-8.8
                        C164.7,65.3,160.8,69.3,160.8,74.2z"/>
                </g>
                <g>
                    <path class="st6" d="M172.2,77.7c-3.4,0-6.2-2.8-6.2-6.2c0-3,2.1-5.5,5-6.1c3.7,0.6,6.7,3.6,7.3,7.3
                        C177.7,75.6,175.2,77.7,172.2,77.7z"/>
                </g>
                <path class="st7" d="M169.3,71.6c0,1.5,1.3,2.8,2.8,2.8s2.8-1.3,2.8-2.8c0-1.5-1.3-2.8-2.8-2.8S169.3,70.1,169.3,71.6z"/>
            </g>
        </g>
        <g>
            <path class="st5" d="M173,100c-0.8-0.8-0.8-2.2,0-3c0.8-0.8,2.2-0.8,3,0c1.5,1.5,4,2.2,6.5,1.8c0.1,0,0.4-0.1,0.4-0.1
                c-0.4,1.3-0.8,3-1.4,4.4c-0.1,0-0.4,0-0.4,0C178,103.1,175.1,102,173,100z"/>
        </g>
    </g>
</g>
</svg>