<svg xmlns="http://www.w3.org/2000/svg" viewBox="0 0 840 240"><defs><style>.cls-1,.cls-5{isolation:isolate;}.cls-2{fill:#0a4b7e;}.cls-3{fill:#0070b2;}.cls-4{fill:#020202;}.cls-5{fill:#8d8c8c;opacity:0.27;mix-blend-mode:multiply;}.cls-6{fill:#413f3d;}.cls-7{fill:#fff;}.cls-8{fill:#084c7e;}</style></defs><title>Landscape</title><g class="cls-1"><g id="Layer_1" data-name="Layer 1"><path class="cls-2" d="M71.69,81c0-.77-.09-1.53-.09-2.34,0-30.41,8.52-50.23,31.59-50.23,11.69,0,13.15,34.08,13.15,52.57Z"/><path class="cls-2" d="M71.69,159c0,.77-.09,1.53-.09,2.34,0,30.41,8.52,50.23,31.59,50.23,11.69,0,13.15-34.08,13.15-52.57Z"/><path class="cls-3" d="M23.21,120c0-45.49,41.3-50.82,92.25-50.82H116c50.76.08,98.5,13.3,91.67,50.82-7.8,42.91-41.06,50.75-91.67,50.82h-.58c-50.95,0-92.25-5.33-92.25-50.82Z"/><path class="cls-4" d="M196.25,128.36a2.11,2.11,0,0,1,3-3,7.4,7.4,0,0,0,6.49,1.81l.35,0c-.37,1.28-.82,3-1.38,4.39h-.44A11.17,11.17,0,0,1,196.25,128.36Z"/><path class="cls-2" d="M131.7,107.56c3.85-3.72,18.11,3.78,22.06,6-.65,1.57-.65,11.37,0,12.94-3.95,2.19-18,9.45-22.06,6C126.88,128.31,126.88,112.23,131.7,107.56Z"/><path class="cls-5" d="M80.79,149.91C51.13,132.35,54,97,72,71.74h0c-29,4.58-48.74,16.83-48.74,48.27h0c0,45.49,41.3,50.82,92.25,50.82H116c37.76,0,65.86-4.44,80.94-24.49l.61-.84.58-.84C164,162.84,115.87,170.69,80.79,149.91Z"/><path class="cls-4" d="M184,102.57a8.83,8.83,0,1,0,8.83-8.83A8.82,8.82,0,0,0,184,102.57Z"/><path class="cls-6" d="M195.43,106.15a6.21,6.21,0,0,1-1.22-12.29,8.82,8.82,0,0,1,7.3,7.31A6.2,6.2,0,0,1,195.43,106.15Z"/><path class="cls-7" d="M192.56,100a2.81,2.81,0,1,0,2.81-2.81A2.8,2.8,0,0,0,192.56,100Z"/><path class="cls-8" d="M349.35,154.89a3.61,3.61,0,1,1-7.17.9l-7.51-61.27-26,52.86c-.78,1.68-2.24,3.92-4.92,3.92s-4.14-2.24-4.94-3.92L272.75,94.52l-7.51,61.27a3.61,3.61,0,1,1-7.17-.9l8.51-70.11a4.25,4.25,0,0,1,4-4h.78A4.09,4.09,0,0,1,275.21,83l28.56,58.47L332.21,83A4.08,4.08,0,0,1,336,80.75h.78a4.25,4.25,0,0,1,4,4Z"/><path class="cls-8" d="M409.65,80.41c22,0,38.86,17.7,38.86,39.65s-16.91,39.53-38.86,39.53-38.75-17.7-38.75-39.53S387.81,80.41,409.65,80.41Zm0,71.8c17.81,0,31.48-14.34,31.48-32.15s-13.67-32.25-31.48-32.25-31.36,14.44-31.36,32.25S391.84,152.21,409.65,152.21Z"/><path class="cls-8" d="M477,158.47a3.93,3.93,0,0,1-3.82-3.8V84.55a3.71,3.71,0,1,1,7.41,0v66.54h29.45a3.69,3.69,0,1,1,0,7.38Z"/><path class="cls-8" d="M604.66,154a3.66,3.66,0,0,1-2.14,4.83,3.69,3.69,0,0,1-4.81-2.24l-7.06-18.37H554.92l-7,18.37a3.71,3.71,0,0,1-4.82,2.24,3.64,3.64,0,0,1-2.13-4.83L567.7,84.22a4.74,4.74,0,0,1,4.81-3.47h.56a4.77,4.77,0,0,1,4.82,3.47ZM572.84,91.61l-15.22,39.64h30.46Z"/><path class="cls-8" d="M778.61,128.56c.51-1.51,1.07-3,1.54-4.54,3.38-10.88,6.59-21.82,10.16-32.65,3.8-11.54,15.34-14.4,24.56-6.35,1.9,1.67,2.46,3.17,1.36,5.75-8.13,19.2-16.11,38.47-24.08,57.74-2.31,5.6-5.46,9.87-12.26,10.25-9.12.5-12.57-1.33-16.21-9.8-8.23-19.15-16.29-38.38-24.63-57.49-1.51-3.47-.61-5.44,2.2-7.33,10.76-7.24,20.94-3.72,24.85,8.63q5.64,17.87,11.32,35.7Z"/><path class="cls-8" d="M674.39,148.81c0,4,1,7.52,5,9.24,10.35,4.4,18.52-.93,18.61-12.11,0-.55-.14-44.49-.14-44.49s12.9.06,16.88-.41c3.29-.39,5.43-2.49,6.4-5.77,2.52-8.5-1.43-14-10.4-14.08-8.33-.1-16.68,0-25,0v0H674.08c-4.86,0-9.74-.14-14.59.08-6,.26-8.93,3.31-9.33,9.09-.43,6.22,2.34,10,8.19,11a36.26,36.26,0,0,0,5.81.29c3.06,0,10.31,0,10.31,0S674.39,136.44,674.39,148.81Z"/></g></g></svg>